<svg xmlns="http://www.w3.org/2000/svg" width="33" height="32" viewbox="0 0 33 32" fill="none">
                                            <path d="M16.6483 31.9999C16.5424 31.9999 16.4364 31.9999 16.3297 31.9994C13.8214 32.0055 11.5038 31.9418 9.24988 31.8046C7.18347 31.6789 5.29724 30.9648 3.7948 29.7397C2.34509 28.5575 1.3551 26.9591 0.852417 24.9894C0.414917 23.2746 0.391724 21.5912 0.369507 19.963C0.353394 18.7948 0.336792 17.4106 0.333374 16.0028C0.336792 14.5893 0.353394 13.205 0.369507 12.0368C0.391724 10.4088 0.414917 8.7255 0.852417 7.01041C1.3551 5.04068 2.34509 3.44229 3.7948 2.26016C5.29724 1.03507 7.18347 0.320955 9.25012 0.195223C11.504 0.0582598 13.8221 -0.00570501 16.3358 0.000398507C18.8448 -0.00497259 21.1617 0.0582598 23.4156 0.195223C25.4821 0.320955 27.3683 1.03507 28.8707 2.26016C30.3207 3.44229 31.3104 5.04068 31.8131 7.01041C32.2506 8.72525 32.2738 10.4088 32.296 12.0368C32.3121 13.205 32.329 14.5893 32.3321 15.997V16.0028C32.329 17.4106 32.3121 18.7948 32.296 19.963C32.2738 21.591 32.2508 23.2743 31.8131 24.9894C31.3104 26.9591 30.3207 28.5575 28.8707 29.7397C27.3683 30.9648 25.4821 31.6789 23.4156 31.8046C21.2572 31.9359 19.0399 31.9999 16.6483 31.9999ZM16.3297 30.0175C18.7972 30.0233 21.0629 29.9608 23.2638 29.827C24.8263 29.7321 26.6694 28.7072 27.7792 27.8022C28.8051 26.9655 29.5117 25.8112 29.8791 24.3712C30.2433 22.9438 30.2643 21.411 30.2846 19.9289C30.3005 18.7685 30.3171 17.394 30.3205 15.9999C30.3171 14.6056 30.3005 13.2314 30.2846 12.071C30.2643 10.5888 30.2433 9.05606 29.8791 7.62833C29.5117 6.18839 28.8051 5.03409 27.7792 4.19742C26.6694 3.29263 24.8263 2.29775 23.2638 2.20278C21.0629 2.06875 18.7972 2.00698 16.3356 2.01235C13.8685 2.00649 11.6027 2.07608 9.40173 2.21012C7.83923 2.30509 6.16706 2.97519 5.05719 3.87998C4.03131 4.71665 3.13478 6.18839 2.76735 7.62833C2.40309 9.05606 2.38209 10.5885 2.36183 12.071C2.34596 13.2323 2.32936 14.6076 2.32594 16.0028C2.32936 17.392 2.34596 18.7675 2.36183 19.9289C2.38209 21.411 2.40309 22.9438 2.76735 24.3712C3.13478 25.8112 3.84132 26.9655 4.8672 27.8022C5.97706 28.7069 7.83923 29.7321 9.40173 29.827C11.6027 29.9611 13.869 30.0236 16.3297 30.0175ZM16.2701 23.8124C11.9625 23.8124 8.45764 20.3078 8.45764 15.9999C8.45764 11.692 11.9625 8.18741 16.2701 8.18741C20.578 8.18741 24.0826 11.692 24.0826 15.9999C24.0826 20.3078 20.578 23.8124 16.2701 23.8124ZM16.3356 10.0065C12.8229 10.0065 10.3509 12.4786 10.3509 15.997C10.3509 18.9262 12.5658 22.0173 16.301 22.0173C19.2305 22.0173 22.2761 19.2421 22.2761 15.997C22.2761 13.0678 20.0413 10.0065 16.3356 10.0065ZM24.9576 5.68741C23.9222 5.68741 23.0826 6.52676 23.0826 7.56241C23.0826 8.59805 23.9222 9.43741 24.9576 9.43741C25.9933 9.43741 26.8326 8.59805 26.8326 7.56241C26.8326 6.52676 25.9933 5.68741 24.9576 5.68741Z" fill="#FAFAFA"></path>
                                        </svg>