<svg xmlns="http://www.w3.org/2000/svg" width="20" height="20" viewbox="0 0 20 20" fill="none">
                                        <path d="M8.11719 0C12.593 0 16.2344 3.64137 16.2344 8.11719C16.2344 10.1445 15.4873 12.0007 14.2539 13.4247L19.8284 18.9998C20.0572 19.2286 20.0572 19.5996 19.8284 19.8284C19.5995 20.0573 19.2286 20.0572 18.9997 19.8284L13.4254 14.2534C12.0012 15.4871 10.1448 16.2344 8.11719 16.2344C3.64137 16.2344 0 12.593 0 8.11719C0 3.64137 3.64137 0 8.11719 0ZM8.11719 15.0625C11.9469 15.0625 15.0625 11.9468 15.0625 8.11719C15.0625 4.28754 11.9468 1.17187 8.11719 1.17187C4.28754 1.17187 1.17188 4.28754 1.17188 8.11719C1.17188 11.9468 4.28754 15.0625 8.11719 15.0625Z" fill="#1E1F20"></path>
                                    </svg>